<svg width="26" height="27" viewBox="0 0 26 27" fill="none" xmlns="http://www.w3.org/2000/svg">
<path d="M14.9727 9.4541C14.6173 9.45101 14.2732 9.57029 13.9971 9.78906L13.8828 9.88867L13.877 9.89551L9.77734 13.9932L8.27637 12.4932V12.4922C7.98574 12.2019 7.59145 12.0389 7.18066 12.0391C6.7698 12.0392 6.37538 12.2025 6.08496 12.4932C5.79464 12.7838 5.63174 13.1781 5.63184 13.5889C5.63196 13.9486 5.75723 14.2956 5.9834 14.5713L6.08594 14.6846L8.6084 17.2061C8.76197 17.3597 8.94385 17.4823 9.14453 17.5654C9.3451 17.6485 9.56024 17.6913 9.77734 17.6914C9.99461 17.6914 10.2104 17.6486 10.4111 17.5654C10.5617 17.5031 10.7017 17.4184 10.8271 17.3154L10.9473 17.2061L16.0674 12.0859L16.0732 12.0791C16.3552 11.7871 16.5112 11.3962 16.5078 10.9902C16.5047 10.6349 16.3798 10.2928 16.1562 10.0205L16.0547 9.9082C15.7675 9.62104 15.3787 9.4577 14.9727 9.4541ZM3.10742 16.6836L0.967773 14.5439C0.685051 14.261 0.519115 13.882 0.501953 13.4824C0.484854 13.083 0.617731 12.6918 0.875 12.3857L0.874023 12.3848L0.967773 12.2842L3.10742 10.1445V7.11914L3.11426 6.96875C3.14726 6.62046 3.29435 6.29073 3.53418 6.03223C3.80749 5.73779 4.18158 5.5564 4.58203 5.52539L4.72559 5.52051H7.73047L7.87695 5.37402L9.86914 3.38086L9.87012 3.38184C10.153 3.09933 10.5313 2.93318 10.9307 2.91602C11.3285 2.89892 11.7179 3.03093 12.0234 3.28613L12.1299 3.38184V3.38281L14.123 5.375L14.2695 5.52051H17.2939L17.4443 5.52832C17.7927 5.56121 18.1223 5.70746 18.3809 5.94727C18.6393 6.18705 18.8101 6.50484 18.8691 6.84961L18.8877 6.99902L18.8926 7.11914V10.1445L21.0322 12.2842C21.3148 12.567 21.4808 12.9453 21.498 13.3447C21.515 13.7404 21.3843 14.1279 21.1318 14.4326L21.0312 14.5439L18.8916 16.6836V19.709C18.8916 20.1121 18.7389 20.5003 18.4648 20.7959C18.1913 21.0907 17.8169 21.2709 17.416 21.3018L17.2773 21.3066H14.2705L12.1309 23.4463C11.8481 23.7289 11.4697 23.8948 11.0703 23.9121C10.6721 23.9292 10.2812 23.7977 9.97559 23.542L9.86523 23.4404L7.73145 21.3066H4.70508C4.30209 21.3067 3.91372 21.1548 3.61816 20.8809C3.35944 20.6409 3.18883 20.3226 3.12988 19.9775L3.11133 19.8281L3.10742 19.6914V16.6836Z" stroke="black"/>
<g filter="url(#filter0_d_5485_71187)">
<path fill-rule="evenodd" clip-rule="evenodd" d="M11.5166 2.02765C11.888 1.65676 12.3848 1.43853 12.9092 1.416C13.4336 1.39347 13.9473 1.56828 14.3491 1.90595L14.4834 2.0287L16.4767 4.02096H19.2945C19.8237 4.02105 20.3333 4.2211 20.7212 4.58101C21.1091 4.94092 21.3467 5.43412 21.3864 5.96181L21.3927 6.11917V8.93708L23.3859 10.9304C23.7571 11.3018 23.9755 11.7989 23.9981 12.3235C24.0206 12.8481 23.8456 13.3621 23.5076 13.764L23.3849 13.8973L21.3916 15.8906V18.7085C21.3918 19.2378 21.1919 19.7477 20.832 20.1358C20.472 20.524 19.9787 20.7617 19.4508 20.8014L19.2945 20.8067H16.4777L14.4845 22.8C14.113 23.1712 13.6159 23.3896 13.0913 23.4121C12.5667 23.4347 12.0527 23.2597 11.6509 22.9217L11.5176 22.8L9.52438 20.8067H6.70549C6.17614 20.8069 5.6663 20.6069 5.27816 20.247C4.89001 19.8871 4.65226 19.3937 4.61256 18.8658L4.60732 18.7085V15.8906L2.61405 13.8973C2.24288 13.5258 2.02446 13.0287 2.00193 12.5041C1.9794 11.9795 2.1544 11.4655 2.49236 11.0636L2.61405 10.9304L4.60732 8.93708V6.11917C4.60741 5.59 4.80745 5.0804 5.16736 4.69247C5.52726 4.30455 6.02045 4.06694 6.54812 4.02725L6.70549 4.02096H9.52333L11.5166 2.02765ZM16.2301 9.24866L11.7778 13.7011L9.92303 11.8463C9.72618 11.6495 9.45925 11.5391 9.18096 11.5392C8.90267 11.5393 8.63581 11.6499 8.4391 11.8468C8.24239 12.0436 8.13193 12.3106 8.13203 12.5889C8.13213 12.8672 8.24277 13.134 8.43963 13.3307L10.9616 15.8528C11.0688 15.96 11.196 16.0451 11.3361 16.1031C11.4761 16.1611 11.6262 16.191 11.7778 16.191C11.9294 16.191 12.0795 16.1611 12.2196 16.1031C12.3596 16.0451 12.4868 15.96 12.594 15.8528L17.7135 10.7321C17.9046 10.5342 18.0104 10.2692 18.008 9.99416C18.0056 9.71909 17.8953 9.45596 17.7008 9.26144C17.5063 9.06693 17.2431 8.9566 16.9681 8.95421C16.693 8.95182 16.428 9.05756 16.2301 9.24866Z" fill="#DC0000"/>
</g>
<defs>
<filter id="filter0_d_5485_71187" x="0" y="0.414062" width="26" height="26" filterUnits="userSpaceOnUse" color-interpolation-filters="sRGB">
<feFlood flood-opacity="0" result="BackgroundImageFix"/>
<feColorMatrix in="SourceAlpha" type="matrix" values="0 0 0 0 0 0 0 0 0 0 0 0 0 0 0 0 0 0 127 0" result="hardAlpha"/>
<feOffset dy="1"/>
<feGaussianBlur stdDeviation="1"/>
<feComposite in2="hardAlpha" operator="out"/>
<feColorMatrix type="matrix" values="0 0 0 0 0 0 0 0 0 0 0 0 0 0 0 0 0 0 0.7 0"/>
<feBlend mode="normal" in2="BackgroundImageFix" result="effect1_dropShadow_5485_71187"/>
<feBlend mode="normal" in="SourceGraphic" in2="effect1_dropShadow_5485_71187" result="shape"/>
</filter>
</defs>
</svg>
