<svg width="25" height="26" viewBox="0 0 25 26" fill="none" xmlns="http://www.w3.org/2000/svg">
<path d="M16.2744 10.3281L19.1562 13.792V13.793C19.5856 14.3117 19.9168 14.8933 20.1504 15.54C20.3836 16.1859 20.5 16.8479 20.5 17.5283C20.5 19.1689 19.9379 20.5322 18.8105 21.6504C17.6807 22.7709 16.3203 23.3281 14.7002 23.3281H6.2998L5.99512 23.3213C4.48984 23.2564 3.22561 22.7012 2.17676 21.6523C1.05799 20.5335 0.500044 19.1694 0.5 17.5283C0.5 16.8479 0.61643 16.1859 0.849609 15.54C1.08315 14.8933 1.41445 14.3117 1.84375 13.793L1.84277 13.792L4.72559 10.3281H16.2744ZM17.4199 3.32812L15.5869 6.99512H5.41309L3.58008 3.32812H17.4199Z" stroke="black"/>
<g filter="url(#filter0_d_5485_71221)">
<path d="M7.10417 6.49479H17.8958L20.2292 1.82812H4.77083L7.10417 6.49479ZM8.3 22.8281H16.7C18.45 22.8281 19.9375 22.2207 21.1625 21.0058C22.3875 19.7909 23 18.2983 23 16.5281C23 15.7892 22.8736 15.0698 22.6208 14.3698C22.3681 13.6698 22.0083 13.0378 21.5417 12.474L18.5083 8.82813H6.49167L3.45833 12.474C2.99167 13.0378 2.63194 13.6698 2.37917 14.3698C2.12639 15.0698 2 15.7892 2 16.5281C2 18.2976 2.60783 19.7901 3.8235 21.0058C5.03917 22.2215 6.53133 22.8289 8.3 22.8281Z" fill="#DC0000"/>
</g>
<defs>
<filter id="filter0_d_5485_71221" x="0" y="0.828125" width="25" height="25" filterUnits="userSpaceOnUse" color-interpolation-filters="sRGB">
<feFlood flood-opacity="0" result="BackgroundImageFix"/>
<feColorMatrix in="SourceAlpha" type="matrix" values="0 0 0 0 0 0 0 0 0 0 0 0 0 0 0 0 0 0 127 0" result="hardAlpha"/>
<feOffset dy="1"/>
<feGaussianBlur stdDeviation="1"/>
<feComposite in2="hardAlpha" operator="out"/>
<feColorMatrix type="matrix" values="0 0 0 0 0 0 0 0 0 0 0 0 0 0 0 0 0 0 0.7 0"/>
<feBlend mode="normal" in2="BackgroundImageFix" result="effect1_dropShadow_5485_71221"/>
<feBlend mode="normal" in="SourceGraphic" in2="effect1_dropShadow_5485_71221" result="shape"/>
</filter>
</defs>
</svg>
