<svg width="26" height="26" viewBox="0 0 26 26" fill="none" xmlns="http://www.w3.org/2000/svg">
<path d="M1.5 21.9688H19.5C20.1318 21.9688 20.5 22.3907 20.5 22.7344C20.5 23.0781 20.1318 23.5 19.5 23.5H1.5C0.868173 23.5 0.500008 23.0781 0.5 22.7344C0.5 22.3907 0.868166 21.9688 1.5 21.9688ZM10.5078 3.5C10.6492 3.50003 10.7879 3.52387 10.915 3.56836C11.0102 3.6017 11.0962 3.64551 11.1709 3.69727L11.2422 3.75195L18.1279 9.56152C18.4208 9.80878 18.4423 10.1002 18.3242 10.3398C18.1975 10.5967 17.8774 10.8438 17.3848 10.8438H14.5V17.6719C14.5 18.0156 14.1318 18.4375 13.5 18.4375H7.5C6.8682 18.4375 6.50004 18.0156 6.5 17.6719V10.8438H3.61523C3.12307 10.8438 2.80789 10.5974 2.68457 10.3428C2.58355 10.1341 2.58862 9.88355 2.78906 9.65723L2.8877 9.56152L9.77246 3.75195C9.86197 3.67628 9.97336 3.61289 10.1006 3.56836C10.2277 3.52389 10.3664 3.5 10.5078 3.5Z" stroke="black"/>
<g filter="url(#filter0_d_5485_71198)">
<path d="M9.64898 17.254H15.7682C16.6096 17.254 17.298 16.6732 17.298 15.9633V9.50938H19.7303C21.0919 9.50938 21.7803 8.11534 20.8165 7.30215L13.7947 1.37748C13.6532 1.25782 13.4851 1.16289 13.3 1.09811C13.115 1.03334 12.9166 1 12.7162 1C12.5159 1 12.3175 1.03334 12.1324 1.09811C11.9474 1.16289 11.7792 1.25782 11.6377 1.37748L4.61595 7.30215C3.65218 8.11534 4.32529 9.50938 5.68681 9.50938H8.11919V15.9633C8.11919 16.6732 8.80759 17.254 9.64898 17.254ZM3.5298 19.8356H21.8874C22.7287 19.8356 23.4171 20.4164 23.4171 21.1264C23.4171 21.8363 22.7287 22.4171 21.8874 22.4171H3.5298C2.68841 22.4171 2 21.8363 2 21.1264C2 20.4164 2.68841 19.8356 3.5298 19.8356Z" fill="#DC0000"/>
</g>
<defs>
<filter id="filter0_d_5485_71198" x="0" y="0" width="25.4141" height="25.4141" filterUnits="userSpaceOnUse" color-interpolation-filters="sRGB">
<feFlood flood-opacity="0" result="BackgroundImageFix"/>
<feColorMatrix in="SourceAlpha" type="matrix" values="0 0 0 0 0 0 0 0 0 0 0 0 0 0 0 0 0 0 127 0" result="hardAlpha"/>
<feOffset dy="1"/>
<feGaussianBlur stdDeviation="1"/>
<feComposite in2="hardAlpha" operator="out"/>
<feColorMatrix type="matrix" values="0 0 0 0 0 0 0 0 0 0 0 0 0 0 0 0 0 0 0.7 0"/>
<feBlend mode="normal" in2="BackgroundImageFix" result="effect1_dropShadow_5485_71198"/>
<feBlend mode="normal" in="SourceGraphic" in2="effect1_dropShadow_5485_71198" result="shape"/>
</filter>
</defs>
</svg>
